<?xml version="1.0" encoding="UTF-8" standalone="no"?>
<!DOCTYPE svg PUBLIC "-//W3C//DTD SVG 1.1//EN"
 "http://www.w3.org/Graphics/SVG/1.1/DTD/svg11.dtd">
<!-- Generated by graphviz version 3.0.0 (20220226.1711)
 -->
<!-- Title: UML Pages: 1 -->
<svg width="5237pt" height="539pt"
 viewBox="0.00 0.00 5236.50 539.41" xmlns="http://www.w3.org/2000/svg" xmlns:xlink="http://www.w3.org/1999/xlink">
<g id="graph0" class="graph" transform="scale(1 1) rotate(0) translate(4 535.41)">
<title>UML</title>
<polygon fill="white" stroke="transparent" points="-4,4 -4,-535.41 5232.5,-535.41 5232.5,4 -4,4"/>
<g id="clust1" class="cluster">
<title>cluster_0</title>
<polygon fill="none" stroke="black" points="90.5,-8 90.5,-435 352.5,-435 352.5,-8 90.5,-8"/>
<text text-anchor="middle" x="221.5" y="-419.8" font-family="Times New Roman,serif" font-size="14.00">test</text>
</g>
<g id="clust2" class="cluster">
<title>cluster_1</title>
<polygon fill="none" stroke="black" points="118.5,-16 118.5,-91 188.5,-91 188.5,-16 118.5,-16"/>
<text text-anchor="middle" x="153.5" y="-75.8" font-family="Times New Roman,serif" font-size="14.00">ns1</text>
</g>
<g id="clust3" class="cluster">
<title>cluster_2</title>
<polygon fill="none" stroke="black" points="196.5,-16 196.5,-91 270.5,-91 270.5,-16 196.5,-16"/>
<text text-anchor="middle" x="233.5" y="-75.8" font-family="Times New Roman,serif" font-size="14.00">ns2</text>
</g>
<!-- inc_test -->
<g id="node1" class="node">
<title>inc_test</title>
<polygon fill="lightgrey" stroke="black" points="81,-399.5 0,-399.5 0,-343.5 81,-343.5 81,-399.5"/>
<text text-anchor="start" x="26.5" y="-389.1" font-family="Helvetica,Arial,sans-serif" font-size="8.00">inc_test</text>
<text text-anchor="start" x="27.5" y="-374.1" font-family="Helvetica,Arial,sans-serif" font-size="8.00">+ a: int </text>
<text text-anchor="start" x="7" y="-359.1" font-family="Helvetica,Arial,sans-serif" font-size="8.00">+ &#160;&#160;inc_test(): void </text>
<text text-anchor="start" x="4.5" y="-350.1" font-family="Helvetica,Arial,sans-serif" font-size="8.00">+ &#160;&#160;~inc_test(): void </text>
<polygon fill="black" stroke="black" points="0.5,-383.5 0.5,-383.5 81.5,-383.5 81.5,-383.5 0.5,-383.5"/>
<polygon fill="black" stroke="black" points="0.5,-368.5 0.5,-368.5 81.5,-368.5 81.5,-368.5 0.5,-368.5"/>
</g>
<!-- test__A -->
<g id="node2" class="node">
<title>test__A</title>
<polygon fill="lightgrey" stroke="black" points="344.5,-399.5 266.5,-399.5 266.5,-343.5 344.5,-343.5 344.5,-399.5"/>
<text text-anchor="start" x="302" y="-389.1" font-family="Helvetica,Arial,sans-serif" font-size="8.00">A</text>
<text text-anchor="start" x="282.5" y="-374.1" font-family="Helvetica,Arial,sans-serif" font-size="8.00">+ &#160;&#160;A(): void </text>
<text text-anchor="start" x="270.5" y="-359.1" font-family="Helvetica,Arial,sans-serif" font-size="8.00">&#45; _pinc1: inc_test * </text>
<text text-anchor="start" x="270.5" y="-350.1" font-family="Helvetica,Arial,sans-serif" font-size="8.00">&#45; _pinc2: inc_test * </text>
<polygon fill="black" stroke="black" points="266.5,-383.5 266.5,-383.5 344.5,-383.5 344.5,-383.5 266.5,-383.5"/>
<polygon fill="black" stroke="black" points="266.5,-368.5 266.5,-368.5 344.5,-368.5 344.5,-368.5 266.5,-368.5"/>
</g>
<!-- inc_test&#45;&gt;test__A -->
<g id="edge1" class="edge">
<title>inc_test&#45;&gt;test__A</title>
<path fill="none" stroke="black" d="M42.74,-411.9C47.15,-447.13 59.79,-495.93 95.5,-518 124.42,-535.87 219.58,-535.87 248.5,-518 288.78,-493.11 300.64,-434.66 304.11,-399.58"/>
<polygon fill="black" stroke="black" points="42.7,-411.55 38.11,-406 41.46,-399.62 46.06,-405.17 42.7,-411.55"/>
</g>
<!-- test__B -->
<g id="node3" class="node">
<title>test__B</title>
<polygon fill="lightgrey" stroke="black" points="248,-404 99,-404 99,-339 248,-339 248,-404"/>
<text text-anchor="start" x="171" y="-393.1" font-family="Helvetica,Arial,sans-serif" font-size="8.00">B</text>
<text text-anchor="start" x="151.5" y="-378.1" font-family="Helvetica,Arial,sans-serif" font-size="8.00">+ &#160;&#160;B(): void </text>
<text text-anchor="start" x="130" y="-369.1" font-family="Helvetica,Arial,sans-serif" font-size="8.00">+ &#160;&#160;B(const int &amp;&amp;): void </text>
<text text-anchor="start" x="103.5" y="-360.1" font-family="Helvetica,Arial,sans-serif" font-size="8.00">+ static &#160;factory*(const char *): test::B </text>
<text text-anchor="start" x="151" y="-345.1" font-family="Helvetica,Arial,sans-serif" font-size="8.00">&#45; _a: test::A </text>
<polygon fill="black" stroke="black" points="99.5,-387.5 99.5,-387.5 248.5,-387.5 248.5,-387.5 99.5,-387.5"/>
<polygon fill="black" stroke="black" points="99.5,-354.5 99.5,-354.5 248.5,-354.5 248.5,-354.5 99.5,-354.5"/>
</g>
<!-- test__A&#45;&gt;test__B -->
<g id="edge2" class="edge">
<title>test__A&#45;&gt;test__B</title>
<path fill="none" stroke="black" d="M254.34,-371.5C252.23,-371.5 250.12,-371.5 248.01,-371.5"/>
<polygon fill="black" stroke="black" points="254.42,-371.5 260.42,-367.5 266.42,-371.5 260.42,-375.5 254.42,-371.5"/>
</g>
<!-- test__C -->
<g id="node4" class="node">
<title>test__C</title>
<polygon fill="lightgrey" stroke="black" points="171,-207 118,-207 118,-171 171,-171 171,-207"/>
<text text-anchor="start" x="142" y="-194.6" font-family="Helvetica,Arial,sans-serif" font-size="8.00">C</text>
<text text-anchor="start" x="122.5" y="-179.6" font-family="Helvetica,Arial,sans-serif" font-size="8.00">+ &#160;&#160;C(): void </text>
<polygon fill="black" stroke="black" points="118.5,-189 118.5,-189 171.5,-189 171.5,-189 118.5,-189"/>
</g>
<!-- test__B&#45;&gt;test__C -->
<g id="edge6" class="edge">
<title>test__B&#45;&gt;test__C</title>
<path fill="none" stroke="black" d="M166.8,-328.77C160.62,-290.31 151.75,-235.12 147.29,-207.35"/>
<polygon fill="none" stroke="black" points="163.34,-329.33 168.38,-338.65 170.25,-328.22 163.34,-329.33"/>
</g>
<!-- test__D -->
<g id="node5" class="node">
<title>test__D</title>
<polygon fill="lightgrey" stroke="black" points="242,-207 189,-207 189,-171 242,-171 242,-207"/>
<text text-anchor="start" x="213" y="-194.6" font-family="Helvetica,Arial,sans-serif" font-size="8.00">D</text>
<text text-anchor="start" x="193.5" y="-179.6" font-family="Helvetica,Arial,sans-serif" font-size="8.00">+ &#160;&#160;D(): void </text>
<polygon fill="black" stroke="black" points="189.5,-189 189.5,-189 242.5,-189 242.5,-189 189.5,-189"/>
</g>
<!-- test__B&#45;&gt;test__D -->
<g id="edge7" class="edge">
<title>test__B&#45;&gt;test__D</title>
<path fill="none" stroke="black" d="M183.21,-328.77C192.16,-290.31 205,-235.12 211.46,-207.35"/>
<polygon fill="none" stroke="black" points="179.77,-328.11 180.91,-338.65 186.59,-329.7 179.77,-328.11"/>
</g>
<!-- test__E -->
<g id="node6" class="node">
<title>test__E</title>
<polygon fill="lightgrey" stroke="black" points="189.5,-135 137.5,-135 137.5,-99 189.5,-99 189.5,-135"/>
<text text-anchor="start" x="161" y="-122.6" font-family="Helvetica,Arial,sans-serif" font-size="8.00">E</text>
<text text-anchor="start" x="141.5" y="-107.6" font-family="Helvetica,Arial,sans-serif" font-size="8.00">+ &#160;&#160;E(): void </text>
<polygon fill="black" stroke="black" points="137.5,-117 137.5,-117 189.5,-117 189.5,-117 137.5,-117"/>
</g>
<!-- test__C&#45;&gt;test__E -->
<g id="edge8" class="edge">
<title>test__C&#45;&gt;test__E</title>
<path fill="none" stroke="black" d="M151.84,-160.95C154.2,-152.26 156.75,-142.88 158.86,-135.1"/>
<polygon fill="none" stroke="black" points="148.44,-160.13 149.2,-170.7 155.19,-161.96 148.44,-160.13"/>
</g>
<!-- test__D&#45;&gt;test__E -->
<g id="edge9" class="edge">
<title>test__D&#45;&gt;test__E</title>
<path fill="none" stroke="black" d="M196.66,-162.64C189.86,-153.49 182.36,-143.38 176.21,-135.1"/>
<polygon fill="none" stroke="black" points="193.87,-164.76 202.65,-170.7 199.49,-160.58 193.87,-164.76"/>
</g>
<!-- test__ns1__N -->
<g id="node7" class="node">
<title>test__ns1__N</title>
<polygon fill="lightgrey" stroke="black" points="180,-60 127,-60 127,-24 180,-24 180,-60"/>
<text text-anchor="start" x="151" y="-47.6" font-family="Helvetica,Arial,sans-serif" font-size="8.00">N</text>
<text text-anchor="start" x="131.5" y="-32.6" font-family="Helvetica,Arial,sans-serif" font-size="8.00">+ &#160;&#160;N(): void </text>
<polygon fill="black" stroke="black" points="127.5,-42 127.5,-42 180.5,-42 180.5,-42 127.5,-42"/>
</g>
<!-- test__E&#45;&gt;test__ns1__N -->
<g id="edge10" class="edge">
<title>test__E&#45;&gt;test__ns1__N</title>
<path fill="none" stroke="black" d="M159.73,-88.49C158.43,-78.98 157.01,-68.61 155.85,-60.18"/>
<polygon fill="none" stroke="black" points="156.31,-89.27 161.13,-98.7 163.24,-88.32 156.31,-89.27"/>
</g>
<!-- test__ns2__N2 -->
<g id="node8" class="node">
<title>test__ns2__N2</title>
<polygon fill="lightgrey" stroke="black" points="262,-60 205,-60 205,-24 262,-24 262,-60"/>
<text text-anchor="start" x="229" y="-47.6" font-family="Helvetica,Arial,sans-serif" font-size="8.00">N2</text>
<text text-anchor="start" x="209.5" y="-32.6" font-family="Helvetica,Arial,sans-serif" font-size="8.00">+ &#160;&#160;N2(): void </text>
<polygon fill="black" stroke="black" points="205.5,-42 205.5,-42 262.5,-42 262.5,-42 205.5,-42"/>
</g>
<!-- test__E&#45;&gt;test__ns2__N2 -->
<g id="edge11" class="edge">
<title>test__E&#45;&gt;test__ns2__N2</title>
<path fill="none" stroke="black" d="M191.5,-91.99C191.84,-91.66 192.17,-91.33 192.5,-91 202.09,-81.37 212.01,-69.81 219.69,-60.44"/>
<polygon fill="none" stroke="black" points="189.04,-89.5 184.14,-98.9 193.83,-94.61 189.04,-89.5"/>
</g>
<!-- _CrtEnableIf -->
<g id="node9" class="node">
<title>_CrtEnableIf</title>
<polygon fill="lightgrey" stroke="black" points="414.5,-389.5 362.5,-389.5 362.5,-353.5 414.5,-353.5 414.5,-389.5"/>
<text text-anchor="start" x="366.5" y="-369.1" font-family="Helvetica,Arial,sans-serif" font-size="8.00">_CrtEnableIf</text>
</g>
<!-- __crt_locale_data_public -->
<g id="node10" class="node">
<title>__crt_locale_data_public</title>
<polygon fill="lightgrey" stroke="black" points="592,-396.5 433,-396.5 433,-346.5 592,-346.5 592,-396.5"/>
<text text-anchor="start" x="472" y="-386.1" font-family="Helvetica,Arial,sans-serif" font-size="8.00">crt_locale_data_public</text>
<text text-anchor="start" x="437.5" y="-371.1" font-family="Helvetica,Arial,sans-serif" font-size="8.00">+ _locale_pctype: const unsigned short * </text>
<text text-anchor="start" x="463.5" y="-362.1" font-family="Helvetica,Arial,sans-serif" font-size="8.00">+ _locale_mb_cur_max: int </text>
<text text-anchor="start" x="446" y="-353.1" font-family="Helvetica,Arial,sans-serif" font-size="8.00">+ _locale_lc_codepage: unsigned int </text>
<polygon fill="black" stroke="black" points="433.5,-380.5 433.5,-380.5 592.5,-380.5 592.5,-380.5 433.5,-380.5"/>
</g>
<!-- __crt_locale_pointers -->
<g id="node11" class="node">
<title>__crt_locale_pointers</title>
<polygon fill="lightgrey" stroke="black" points="764.5,-392 610.5,-392 610.5,-351 764.5,-351 764.5,-392"/>
<text text-anchor="start" x="652.5" y="-381.1" font-family="Helvetica,Arial,sans-serif" font-size="8.00">crt_locale_pointers</text>
<text text-anchor="start" x="622" y="-366.1" font-family="Helvetica,Arial,sans-serif" font-size="8.00">+ locinfo: struct __crt_locale_data * </text>
<text text-anchor="start" x="614.5" y="-357.1" font-family="Helvetica,Arial,sans-serif" font-size="8.00">+ mbcinfo: struct __crt_multibyte_data * </text>
<polygon fill="black" stroke="black" points="610.5,-375.5 610.5,-375.5 764.5,-375.5 764.5,-375.5 610.5,-375.5"/>
</g>
<!-- __crt_locale_data -->
<g id="node12" class="node">
<title>__crt_locale_data</title>
<polygon fill="lightgrey" stroke="black" points="846.5,-389.5 782.5,-389.5 782.5,-353.5 846.5,-353.5 846.5,-389.5"/>
<text text-anchor="start" x="786.5" y="-369.1" font-family="Helvetica,Arial,sans-serif" font-size="8.00">crt_locale_data</text>
</g>
<!-- __crt_locale_data&#45;&gt;__crt_locale_pointers -->
<g id="edge3" class="edge">
<title>__crt_locale_data&#45;&gt;__crt_locale_pointers</title>
<path fill="none" stroke="black" d="M770.07,-371.5C768.34,-371.5 766.62,-371.5 764.89,-371.5"/>
<polygon fill="none" stroke="black" points="770.33,-371.5 776.33,-367.5 782.33,-371.5 776.33,-375.5 770.33,-371.5"/>
</g>
<!-- __crt_multibyte_data -->
<g id="node13" class="node">
<title>__crt_multibyte_data</title>
<polygon fill="lightgrey" stroke="black" points="940,-389.5 865,-389.5 865,-353.5 940,-353.5 940,-389.5"/>
<text text-anchor="start" x="869.5" y="-369.1" font-family="Helvetica,Arial,sans-serif" font-size="8.00">crt_multibyte_data</text>
</g>
<!-- __crt_multibyte_data&#45;&gt;__crt_locale_pointers -->
<g id="edge4" class="edge">
<title>__crt_multibyte_data&#45;&gt;__crt_locale_pointers</title>
<path fill="none" stroke="black" d="M901.08,-402.15C897.56,-437.47 885.73,-493.76 846.5,-518 822.3,-532.95 807.49,-531.58 782.5,-518 732.83,-491.01 705.11,-425.59 693.72,-392.06"/>
<polygon fill="none" stroke="black" points="901.11,-401.71 897.6,-395.42 902.06,-389.75 905.57,-396.05 901.11,-401.71"/>
</g>
<!-- _Mbstatet -->
<g id="node14" class="node">
<title>_Mbstatet</title>
<polygon fill="lightgrey" stroke="black" points="1059,-396.5 958,-396.5 958,-346.5 1059,-346.5 1059,-396.5"/>
<text text-anchor="start" x="991" y="-386.1" font-family="Helvetica,Arial,sans-serif" font-size="8.00">_Mbstatet</text>
<text text-anchor="start" x="962.5" y="-371.1" font-family="Helvetica,Arial,sans-serif" font-size="8.00">+ _Wchar: unsigned long </text>
<text text-anchor="start" x="964.5" y="-362.1" font-family="Helvetica,Arial,sans-serif" font-size="8.00">+ _Byte: unsigned short </text>
<text text-anchor="start" x="963.5" y="-353.1" font-family="Helvetica,Arial,sans-serif" font-size="8.00">+ _State: unsigned short </text>
<polygon fill="black" stroke="black" points="958.5,-380.5 958.5,-380.5 1059.5,-380.5 1059.5,-380.5 958.5,-380.5"/>
</g>
<!-- _iobuf -->
<g id="node15" class="node">
<title>_iobuf</title>
<polygon fill="lightgrey" stroke="black" points="1166,-389.5 1077,-389.5 1077,-353.5 1166,-353.5 1166,-389.5"/>
<text text-anchor="start" x="1110.5" y="-377.1" font-family="Helvetica,Arial,sans-serif" font-size="8.00">_iobuf</text>
<text text-anchor="start" x="1081.5" y="-362.1" font-family="Helvetica,Arial,sans-serif" font-size="8.00">+ _Placeholder: void * </text>
<polygon fill="black" stroke="black" points="1077.5,-371.5 1077.5,-371.5 1166.5,-371.5 1166.5,-371.5 1077.5,-371.5"/>
</g>
<!-- _wfinddata32_t -->
<g id="node16" class="node">
<title>_wfinddata32_t</title>
<polygon fill="lightgrey" stroke="black" points="1291,-410 1184,-410 1184,-333 1291,-333 1291,-410"/>
<text text-anchor="start" x="1209" y="-399.1" font-family="Helvetica,Arial,sans-serif" font-size="8.00">_wfinddata32_t</text>
<text text-anchor="start" x="1200" y="-384.1" font-family="Helvetica,Arial,sans-serif" font-size="8.00">+ attrib: unsigned int </text>
<text text-anchor="start" x="1190.5" y="-375.1" font-family="Helvetica,Arial,sans-serif" font-size="8.00">+ time_create: __time32_t </text>
<text text-anchor="start" x="1188.5" y="-366.1" font-family="Helvetica,Arial,sans-serif" font-size="8.00">+ time_access: __time32_t </text>
<text text-anchor="start" x="1192.5" y="-357.1" font-family="Helvetica,Arial,sans-serif" font-size="8.00">+ time_write: __time32_t </text>
<text text-anchor="start" x="1209" y="-348.1" font-family="Helvetica,Arial,sans-serif" font-size="8.00">+ size: _fsize_t </text>
<text text-anchor="start" x="1195.5" y="-339.1" font-family="Helvetica,Arial,sans-serif" font-size="8.00">+ name: wchar_t [260] </text>
<polygon fill="black" stroke="black" points="1184.5,-393.5 1184.5,-393.5 1291.5,-393.5 1291.5,-393.5 1184.5,-393.5"/>
</g>
<!-- _wfinddata32i64_t -->
<g id="node17" class="node">
<title>_wfinddata32i64_t</title>
<polygon fill="lightgrey" stroke="black" points="1416,-410 1309,-410 1309,-333 1416,-333 1416,-410"/>
<text text-anchor="start" x="1329" y="-399.1" font-family="Helvetica,Arial,sans-serif" font-size="8.00">_wfinddata32i64_t</text>
<text text-anchor="start" x="1325" y="-384.1" font-family="Helvetica,Arial,sans-serif" font-size="8.00">+ attrib: unsigned int </text>
<text text-anchor="start" x="1315.5" y="-375.1" font-family="Helvetica,Arial,sans-serif" font-size="8.00">+ time_create: __time32_t </text>
<text text-anchor="start" x="1313.5" y="-366.1" font-family="Helvetica,Arial,sans-serif" font-size="8.00">+ time_access: __time32_t </text>
<text text-anchor="start" x="1317.5" y="-357.1" font-family="Helvetica,Arial,sans-serif" font-size="8.00">+ time_write: __time32_t </text>
<text text-anchor="start" x="1332.5" y="-348.1" font-family="Helvetica,Arial,sans-serif" font-size="8.00">+ size: long long </text>
<text text-anchor="start" x="1320.5" y="-339.1" font-family="Helvetica,Arial,sans-serif" font-size="8.00">+ name: wchar_t [260] </text>
<polygon fill="black" stroke="black" points="1309.5,-393.5 1309.5,-393.5 1416.5,-393.5 1416.5,-393.5 1309.5,-393.5"/>
</g>
<!-- _wfinddata64i32_t -->
<g id="node18" class="node">
<title>_wfinddata64i32_t</title>
<polygon fill="lightgrey" stroke="black" points="1541,-410 1434,-410 1434,-333 1541,-333 1541,-410"/>
<text text-anchor="start" x="1454" y="-399.1" font-family="Helvetica,Arial,sans-serif" font-size="8.00">_wfinddata64i32_t</text>
<text text-anchor="start" x="1450" y="-384.1" font-family="Helvetica,Arial,sans-serif" font-size="8.00">+ attrib: unsigned int </text>
<text text-anchor="start" x="1440.5" y="-375.1" font-family="Helvetica,Arial,sans-serif" font-size="8.00">+ time_create: __time64_t </text>
<text text-anchor="start" x="1438.5" y="-366.1" font-family="Helvetica,Arial,sans-serif" font-size="8.00">+ time_access: __time64_t </text>
<text text-anchor="start" x="1442.5" y="-357.1" font-family="Helvetica,Arial,sans-serif" font-size="8.00">+ time_write: __time64_t </text>
<text text-anchor="start" x="1459" y="-348.1" font-family="Helvetica,Arial,sans-serif" font-size="8.00">+ size: _fsize_t </text>
<text text-anchor="start" x="1445.5" y="-339.1" font-family="Helvetica,Arial,sans-serif" font-size="8.00">+ name: wchar_t [260] </text>
<polygon fill="black" stroke="black" points="1434.5,-393.5 1434.5,-393.5 1541.5,-393.5 1541.5,-393.5 1434.5,-393.5"/>
</g>
<!-- _wfinddata64_t -->
<g id="node19" class="node">
<title>_wfinddata64_t</title>
<polygon fill="lightgrey" stroke="black" points="1666,-410 1559,-410 1559,-333 1666,-333 1666,-410"/>
<text text-anchor="start" x="1584" y="-399.1" font-family="Helvetica,Arial,sans-serif" font-size="8.00">_wfinddata64_t</text>
<text text-anchor="start" x="1575" y="-384.1" font-family="Helvetica,Arial,sans-serif" font-size="8.00">+ attrib: unsigned int </text>
<text text-anchor="start" x="1565.5" y="-375.1" font-family="Helvetica,Arial,sans-serif" font-size="8.00">+ time_create: __time64_t </text>
<text text-anchor="start" x="1563.5" y="-366.1" font-family="Helvetica,Arial,sans-serif" font-size="8.00">+ time_access: __time64_t </text>
<text text-anchor="start" x="1567.5" y="-357.1" font-family="Helvetica,Arial,sans-serif" font-size="8.00">+ time_write: __time64_t </text>
<text text-anchor="start" x="1582.5" y="-348.1" font-family="Helvetica,Arial,sans-serif" font-size="8.00">+ size: long long </text>
<text text-anchor="start" x="1570.5" y="-339.1" font-family="Helvetica,Arial,sans-serif" font-size="8.00">+ name: wchar_t [260] </text>
<polygon fill="black" stroke="black" points="1559.5,-393.5 1559.5,-393.5 1666.5,-393.5 1666.5,-393.5 1559.5,-393.5"/>
</g>
<!-- tm -->
<g id="node20" class="node">
<title>tm</title>
<polygon fill="lightgrey" stroke="black" points="1748.5,-423.5 1684.5,-423.5 1684.5,-319.5 1748.5,-319.5 1748.5,-423.5"/>
<text text-anchor="start" x="1712" y="-413.1" font-family="Helvetica,Arial,sans-serif" font-size="8.00">tm</text>
<text text-anchor="start" x="1692" y="-398.1" font-family="Helvetica,Arial,sans-serif" font-size="8.00">+ tm_sec: int </text>
<text text-anchor="start" x="1693" y="-389.1" font-family="Helvetica,Arial,sans-serif" font-size="8.00">+ tm_min: int </text>
<text text-anchor="start" x="1690.5" y="-380.1" font-family="Helvetica,Arial,sans-serif" font-size="8.00">+ tm_hour: int </text>
<text text-anchor="start" x="1689" y="-371.1" font-family="Helvetica,Arial,sans-serif" font-size="8.00">+ tm_mday: int </text>
<text text-anchor="start" x="1691.5" y="-362.1" font-family="Helvetica,Arial,sans-serif" font-size="8.00">+ tm_mon: int </text>
<text text-anchor="start" x="1690.5" y="-353.1" font-family="Helvetica,Arial,sans-serif" font-size="8.00">+ tm_year: int </text>
<text text-anchor="start" x="1688.5" y="-344.1" font-family="Helvetica,Arial,sans-serif" font-size="8.00">+ tm_wday: int </text>
<text text-anchor="start" x="1690" y="-335.1" font-family="Helvetica,Arial,sans-serif" font-size="8.00">+ tm_yday: int </text>
<text text-anchor="start" x="1690.5" y="-326.1" font-family="Helvetica,Arial,sans-serif" font-size="8.00">+ tm_isdst: int </text>
<polygon fill="black" stroke="black" points="1684.5,-407.5 1684.5,-407.5 1748.5,-407.5 1748.5,-407.5 1684.5,-407.5"/>
</g>
<!-- _stat32 -->
<g id="node21" class="node">
<title>_stat32</title>
<polygon fill="lightgrey" stroke="black" points="1874,-432.5 1767,-432.5 1767,-310.5 1874,-310.5 1874,-432.5"/>
<text text-anchor="start" x="1807" y="-422.1" font-family="Helvetica,Arial,sans-serif" font-size="8.00">_stat32</text>
<text text-anchor="start" x="1789" y="-407.1" font-family="Helvetica,Arial,sans-serif" font-size="8.00">+ st_dev: _dev_t </text>
<text text-anchor="start" x="1792" y="-398.1" font-family="Helvetica,Arial,sans-serif" font-size="8.00">+ st_ino: _ino_t </text>
<text text-anchor="start" x="1771.5" y="-389.1" font-family="Helvetica,Arial,sans-serif" font-size="8.00">+ st_mode: unsigned short </text>
<text text-anchor="start" x="1791" y="-380.1" font-family="Helvetica,Arial,sans-serif" font-size="8.00">+ st_nlink: short </text>
<text text-anchor="start" x="1793.5" y="-371.1" font-family="Helvetica,Arial,sans-serif" font-size="8.00">+ st_uid: short </text>
<text text-anchor="start" x="1793.5" y="-362.1" font-family="Helvetica,Arial,sans-serif" font-size="8.00">+ st_gid: short </text>
<text text-anchor="start" x="1787.5" y="-353.1" font-family="Helvetica,Arial,sans-serif" font-size="8.00">+ st_rdev: _dev_t </text>
<text text-anchor="start" x="1790" y="-344.1" font-family="Helvetica,Arial,sans-serif" font-size="8.00">+ st_size: _off_t </text>
<text text-anchor="start" x="1779.5" y="-335.1" font-family="Helvetica,Arial,sans-serif" font-size="8.00">+ st_atime: __time32_t </text>
<text text-anchor="start" x="1778.5" y="-326.1" font-family="Helvetica,Arial,sans-serif" font-size="8.00">+ st_mtime: __time32_t </text>
<text text-anchor="start" x="1779.5" y="-317.1" font-family="Helvetica,Arial,sans-serif" font-size="8.00">+ st_ctime: __time32_t </text>
<polygon fill="black" stroke="black" points="1767.5,-416.5 1767.5,-416.5 1874.5,-416.5 1874.5,-416.5 1767.5,-416.5"/>
</g>
<!-- _stat32i64 -->
<g id="node22" class="node">
<title>_stat32i64</title>
<polygon fill="lightgrey" stroke="black" points="1999,-432.5 1892,-432.5 1892,-310.5 1999,-310.5 1999,-432.5"/>
<text text-anchor="start" x="1927" y="-422.1" font-family="Helvetica,Arial,sans-serif" font-size="8.00">_stat32i64</text>
<text text-anchor="start" x="1914" y="-407.1" font-family="Helvetica,Arial,sans-serif" font-size="8.00">+ st_dev: _dev_t </text>
<text text-anchor="start" x="1917" y="-398.1" font-family="Helvetica,Arial,sans-serif" font-size="8.00">+ st_ino: _ino_t </text>
<text text-anchor="start" x="1896.5" y="-389.1" font-family="Helvetica,Arial,sans-serif" font-size="8.00">+ st_mode: unsigned short </text>
<text text-anchor="start" x="1916" y="-380.1" font-family="Helvetica,Arial,sans-serif" font-size="8.00">+ st_nlink: short </text>
<text text-anchor="start" x="1918.5" y="-371.1" font-family="Helvetica,Arial,sans-serif" font-size="8.00">+ st_uid: short </text>
<text text-anchor="start" x="1918.5" y="-362.1" font-family="Helvetica,Arial,sans-serif" font-size="8.00">+ st_gid: short </text>
<text text-anchor="start" x="1912.5" y="-353.1" font-family="Helvetica,Arial,sans-serif" font-size="8.00">+ st_rdev: _dev_t </text>
<text text-anchor="start" x="1909.5" y="-344.1" font-family="Helvetica,Arial,sans-serif" font-size="8.00">+ st_size: long long </text>
<text text-anchor="start" x="1904.5" y="-335.1" font-family="Helvetica,Arial,sans-serif" font-size="8.00">+ st_atime: __time32_t </text>
<text text-anchor="start" x="1903.5" y="-326.1" font-family="Helvetica,Arial,sans-serif" font-size="8.00">+ st_mtime: __time32_t </text>
<text text-anchor="start" x="1904.5" y="-317.1" font-family="Helvetica,Arial,sans-serif" font-size="8.00">+ st_ctime: __time32_t </text>
<polygon fill="black" stroke="black" points="1892.5,-416.5 1892.5,-416.5 1999.5,-416.5 1999.5,-416.5 1892.5,-416.5"/>
</g>
<!-- _stat64i32 -->
<g id="node23" class="node">
<title>_stat64i32</title>
<polygon fill="lightgrey" stroke="black" points="2124,-432.5 2017,-432.5 2017,-310.5 2124,-310.5 2124,-432.5"/>
<text text-anchor="start" x="2052" y="-422.1" font-family="Helvetica,Arial,sans-serif" font-size="8.00">_stat64i32</text>
<text text-anchor="start" x="2039" y="-407.1" font-family="Helvetica,Arial,sans-serif" font-size="8.00">+ st_dev: _dev_t </text>
<text text-anchor="start" x="2042" y="-398.1" font-family="Helvetica,Arial,sans-serif" font-size="8.00">+ st_ino: _ino_t </text>
<text text-anchor="start" x="2021.5" y="-389.1" font-family="Helvetica,Arial,sans-serif" font-size="8.00">+ st_mode: unsigned short </text>
<text text-anchor="start" x="2041" y="-380.1" font-family="Helvetica,Arial,sans-serif" font-size="8.00">+ st_nlink: short </text>
<text text-anchor="start" x="2043.5" y="-371.1" font-family="Helvetica,Arial,sans-serif" font-size="8.00">+ st_uid: short </text>
<text text-anchor="start" x="2043.5" y="-362.1" font-family="Helvetica,Arial,sans-serif" font-size="8.00">+ st_gid: short </text>
<text text-anchor="start" x="2037.5" y="-353.1" font-family="Helvetica,Arial,sans-serif" font-size="8.00">+ st_rdev: _dev_t </text>
<text text-anchor="start" x="2040" y="-344.1" font-family="Helvetica,Arial,sans-serif" font-size="8.00">+ st_size: _off_t </text>
<text text-anchor="start" x="2029.5" y="-335.1" font-family="Helvetica,Arial,sans-serif" font-size="8.00">+ st_atime: __time64_t </text>
<text text-anchor="start" x="2028.5" y="-326.1" font-family="Helvetica,Arial,sans-serif" font-size="8.00">+ st_mtime: __time64_t </text>
<text text-anchor="start" x="2029.5" y="-317.1" font-family="Helvetica,Arial,sans-serif" font-size="8.00">+ st_ctime: __time64_t </text>
<polygon fill="black" stroke="black" points="2017.5,-416.5 2017.5,-416.5 2124.5,-416.5 2124.5,-416.5 2017.5,-416.5"/>
</g>
<!-- _stat64 -->
<g id="node24" class="node">
<title>_stat64</title>
<polygon fill="lightgrey" stroke="black" points="2249,-432.5 2142,-432.5 2142,-310.5 2249,-310.5 2249,-432.5"/>
<text text-anchor="start" x="2182" y="-422.1" font-family="Helvetica,Arial,sans-serif" font-size="8.00">_stat64</text>
<text text-anchor="start" x="2164" y="-407.1" font-family="Helvetica,Arial,sans-serif" font-size="8.00">+ st_dev: _dev_t </text>
<text text-anchor="start" x="2167" y="-398.1" font-family="Helvetica,Arial,sans-serif" font-size="8.00">+ st_ino: _ino_t </text>
<text text-anchor="start" x="2146.5" y="-389.1" font-family="Helvetica,Arial,sans-serif" font-size="8.00">+ st_mode: unsigned short </text>
<text text-anchor="start" x="2166" y="-380.1" font-family="Helvetica,Arial,sans-serif" font-size="8.00">+ st_nlink: short </text>
<text text-anchor="start" x="2168.5" y="-371.1" font-family="Helvetica,Arial,sans-serif" font-size="8.00">+ st_uid: short </text>
<text text-anchor="start" x="2168.5" y="-362.1" font-family="Helvetica,Arial,sans-serif" font-size="8.00">+ st_gid: short </text>
<text text-anchor="start" x="2162.5" y="-353.1" font-family="Helvetica,Arial,sans-serif" font-size="8.00">+ st_rdev: _dev_t </text>
<text text-anchor="start" x="2159.5" y="-344.1" font-family="Helvetica,Arial,sans-serif" font-size="8.00">+ st_size: long long </text>
<text text-anchor="start" x="2154.5" y="-335.1" font-family="Helvetica,Arial,sans-serif" font-size="8.00">+ st_atime: __time64_t </text>
<text text-anchor="start" x="2153.5" y="-326.1" font-family="Helvetica,Arial,sans-serif" font-size="8.00">+ st_mtime: __time64_t </text>
<text text-anchor="start" x="2154.5" y="-317.1" font-family="Helvetica,Arial,sans-serif" font-size="8.00">+ st_ctime: __time64_t </text>
<polygon fill="black" stroke="black" points="2142.5,-416.5 2142.5,-416.5 2249.5,-416.5 2249.5,-416.5 2142.5,-416.5"/>
</g>
<!-- stat -->
<g id="node25" class="node">
<title>stat</title>
<polygon fill="lightgrey" stroke="black" points="2374,-432.5 2267,-432.5 2267,-310.5 2374,-310.5 2374,-432.5"/>
<text text-anchor="start" x="2314" y="-422.1" font-family="Helvetica,Arial,sans-serif" font-size="8.00">stat</text>
<text text-anchor="start" x="2289" y="-407.1" font-family="Helvetica,Arial,sans-serif" font-size="8.00">+ st_dev: _dev_t </text>
<text text-anchor="start" x="2292" y="-398.1" font-family="Helvetica,Arial,sans-serif" font-size="8.00">+ st_ino: _ino_t </text>
<text text-anchor="start" x="2271.5" y="-389.1" font-family="Helvetica,Arial,sans-serif" font-size="8.00">+ st_mode: unsigned short </text>
<text text-anchor="start" x="2291" y="-380.1" font-family="Helvetica,Arial,sans-serif" font-size="8.00">+ st_nlink: short </text>
<text text-anchor="start" x="2293.5" y="-371.1" font-family="Helvetica,Arial,sans-serif" font-size="8.00">+ st_uid: short </text>
<text text-anchor="start" x="2293.5" y="-362.1" font-family="Helvetica,Arial,sans-serif" font-size="8.00">+ st_gid: short </text>
<text text-anchor="start" x="2287.5" y="-353.1" font-family="Helvetica,Arial,sans-serif" font-size="8.00">+ st_rdev: _dev_t </text>
<text text-anchor="start" x="2290" y="-344.1" font-family="Helvetica,Arial,sans-serif" font-size="8.00">+ st_size: _off_t </text>
<text text-anchor="start" x="2288.5" y="-335.1" font-family="Helvetica,Arial,sans-serif" font-size="8.00">+ st_atime: time_t </text>
<text text-anchor="start" x="2287.5" y="-326.1" font-family="Helvetica,Arial,sans-serif" font-size="8.00">+ st_mtime: time_t </text>
<text text-anchor="start" x="2288.5" y="-317.1" font-family="Helvetica,Arial,sans-serif" font-size="8.00">+ st_ctime: time_t </text>
<polygon fill="black" stroke="black" points="2267.5,-416.5 2267.5,-416.5 2374.5,-416.5 2374.5,-416.5 2267.5,-416.5"/>
</g>
<!-- _exception -->
<g id="node26" class="node">
<title>_exception</title>
<polygon fill="lightgrey" stroke="black" points="2458.5,-405.5 2392.5,-405.5 2392.5,-337.5 2458.5,-337.5 2458.5,-405.5"/>
<text text-anchor="start" x="2405.5" y="-395.1" font-family="Helvetica,Arial,sans-serif" font-size="8.00">_exception</text>
<text text-anchor="start" x="2406.5" y="-380.1" font-family="Helvetica,Arial,sans-serif" font-size="8.00">+ type: int </text>
<text text-anchor="start" x="2398" y="-371.1" font-family="Helvetica,Arial,sans-serif" font-size="8.00">+ name: char * </text>
<text text-anchor="start" x="2398" y="-362.1" font-family="Helvetica,Arial,sans-serif" font-size="8.00">+ arg1: double </text>
<text text-anchor="start" x="2398" y="-353.1" font-family="Helvetica,Arial,sans-serif" font-size="8.00">+ arg2: double </text>
<text text-anchor="start" x="2396.5" y="-344.1" font-family="Helvetica,Arial,sans-serif" font-size="8.00">+ retval: double </text>
<polygon fill="black" stroke="black" points="2392.5,-389.5 2392.5,-389.5 2458.5,-389.5 2458.5,-389.5 2392.5,-389.5"/>
</g>
<!-- _complex -->
<g id="node27" class="node">
<title>_complex</title>
<polygon fill="lightgrey" stroke="black" points="2528,-392 2477,-392 2477,-351 2528,-351 2528,-392"/>
<text text-anchor="start" x="2485.5" y="-381.1" font-family="Helvetica,Arial,sans-serif" font-size="8.00">_complex</text>
<text text-anchor="start" x="2481.5" y="-366.1" font-family="Helvetica,Arial,sans-serif" font-size="8.00">+ x: double </text>
<text text-anchor="start" x="2481.5" y="-357.1" font-family="Helvetica,Arial,sans-serif" font-size="8.00">+ y: double </text>
<polygon fill="black" stroke="black" points="2477.5,-375.5 2477.5,-375.5 2528.5,-375.5 2528.5,-375.5 2477.5,-375.5"/>
</g>
<!-- _Combined_type -->
<g id="node28" class="node">
<title>_Combined_type</title>
<polygon fill="lightgrey" stroke="black" points="2615,-389.5 2546,-389.5 2546,-353.5 2615,-353.5 2615,-389.5"/>
<text text-anchor="start" x="2550.5" y="-369.1" font-family="Helvetica,Arial,sans-serif" font-size="8.00">_Combined_type</text>
</g>
<!-- float, double -->
<g id="node29" class="node">
<title>float, double</title>
<polygon fill="lightgrey" stroke="black" points="2751.5,-389.5 2633.5,-389.5 2633.5,-353.5 2751.5,-353.5 2751.5,-389.5"/>
<text text-anchor="start" x="2637.5" y="-369.1" font-family="Helvetica,Arial,sans-serif" font-size="8.00">_Real_widened&lt;float, double&gt;</text>
</g>
<!-- float, long double -->
<g id="node30" class="node">
<title>float, long double</title>
<polygon fill="lightgrey" stroke="black" points="2909,-389.5 2770,-389.5 2770,-353.5 2909,-353.5 2909,-389.5"/>
<text text-anchor="start" x="2774.5" y="-369.1" font-family="Helvetica,Arial,sans-serif" font-size="8.00">_Combined_type&lt;float, long double&gt;</text>
</g>
<!-- _Real_widened -->
<g id="node31" class="node">
<title>_Real_widened</title>
<polygon fill="lightgrey" stroke="black" points="2992,-389.5 2927,-389.5 2927,-353.5 2992,-353.5 2992,-389.5"/>
<text text-anchor="start" x="2931.5" y="-369.1" font-family="Helvetica,Arial,sans-serif" font-size="8.00">_Real_widened</text>
</g>
<!-- float, float -->
<g id="node32" class="node">
<title>float, float</title>
<polygon fill="lightgrey" stroke="black" points="3120.5,-389.5 3010.5,-389.5 3010.5,-353.5 3120.5,-353.5 3120.5,-389.5"/>
<text text-anchor="start" x="3014.5" y="-369.1" font-family="Helvetica,Arial,sans-serif" font-size="8.00">_Real_widened&lt;float, float&gt;</text>
</g>
<!-- double, float -->
<g id="node33" class="node">
<title>double, float</title>
<polygon fill="lightgrey" stroke="black" points="3256.5,-389.5 3138.5,-389.5 3138.5,-353.5 3256.5,-353.5 3256.5,-389.5"/>
<text text-anchor="start" x="3142.5" y="-369.1" font-family="Helvetica,Arial,sans-serif" font-size="8.00">_Real_widened&lt;double, float&gt;</text>
</g>
<!-- double, double -->
<g id="node34" class="node">
<title>double, double</title>
<polygon fill="lightgrey" stroke="black" points="3400.5,-389.5 3274.5,-389.5 3274.5,-353.5 3400.5,-353.5 3400.5,-389.5"/>
<text text-anchor="start" x="3278.5" y="-369.1" font-family="Helvetica,Arial,sans-serif" font-size="8.00">_Real_widened&lt;double, double&gt;</text>
</g>
<!-- _Real_type -->
<g id="node35" class="node">
<title>_Real_type</title>
<polygon fill="lightgrey" stroke="black" points="3468,-389.5 3419,-389.5 3419,-353.5 3468,-353.5 3468,-389.5"/>
<text text-anchor="start" x="3423.5" y="-369.1" font-family="Helvetica,Arial,sans-serif" font-size="8.00">_Real_type</text>
</g>
<!-- float -->
<g id="node36" class="node">
<title>float</title>
<polygon fill="lightgrey" stroke="black" points="3560.5,-389.5 3486.5,-389.5 3486.5,-353.5 3560.5,-353.5 3560.5,-389.5"/>
<text text-anchor="start" x="3490.5" y="-369.1" font-family="Helvetica,Arial,sans-serif" font-size="8.00">_Real_type&lt;float&gt;</text>
</g>
<!-- long double -->
<g id="node37" class="node">
<title>long double</title>
<polygon fill="lightgrey" stroke="black" points="3678,-389.5 3579,-389.5 3579,-353.5 3678,-353.5 3678,-389.5"/>
<text text-anchor="start" x="3583.5" y="-369.1" font-family="Helvetica,Arial,sans-serif" font-size="8.00">_Real_type&lt;long double&gt;</text>
</g>
<!-- _div_t -->
<g id="node38" class="node">
<title>_div_t</title>
<polygon fill="lightgrey" stroke="black" points="3742.5,-392 3696.5,-392 3696.5,-351 3742.5,-351 3742.5,-392"/>
<text text-anchor="start" x="3708.5" y="-381.1" font-family="Helvetica,Arial,sans-serif" font-size="8.00">_div_t</text>
<text text-anchor="start" x="3700.5" y="-366.1" font-family="Helvetica,Arial,sans-serif" font-size="8.00">+ quot: int </text>
<text text-anchor="start" x="3701.5" y="-357.1" font-family="Helvetica,Arial,sans-serif" font-size="8.00">+ rem: int </text>
<polygon fill="black" stroke="black" points="3696.5,-375.5 3696.5,-375.5 3742.5,-375.5 3742.5,-375.5 3696.5,-375.5"/>
</g>
<!-- _ldiv_t -->
<g id="node39" class="node">
<title>_ldiv_t</title>
<polygon fill="lightgrey" stroke="black" points="3814,-392 3761,-392 3761,-351 3814,-351 3814,-392"/>
<text text-anchor="start" x="3776" y="-381.1" font-family="Helvetica,Arial,sans-serif" font-size="8.00">_ldiv_t</text>
<text text-anchor="start" x="3765.5" y="-366.1" font-family="Helvetica,Arial,sans-serif" font-size="8.00">+ quot: long </text>
<text text-anchor="start" x="3766.5" y="-357.1" font-family="Helvetica,Arial,sans-serif" font-size="8.00">+ rem: long </text>
<polygon fill="black" stroke="black" points="3761.5,-375.5 3761.5,-375.5 3814.5,-375.5 3814.5,-375.5 3761.5,-375.5"/>
</g>
<!-- _lldiv_t -->
<g id="node40" class="node">
<title>_lldiv_t</title>
<polygon fill="lightgrey" stroke="black" points="3902.5,-392 3832.5,-392 3832.5,-351 3902.5,-351 3902.5,-392"/>
<text text-anchor="start" x="3855" y="-381.1" font-family="Helvetica,Arial,sans-serif" font-size="8.00">_lldiv_t</text>
<text text-anchor="start" x="3836.5" y="-366.1" font-family="Helvetica,Arial,sans-serif" font-size="8.00">+ quot: long long </text>
<text text-anchor="start" x="3837.5" y="-357.1" font-family="Helvetica,Arial,sans-serif" font-size="8.00">+ rem: long long </text>
<polygon fill="black" stroke="black" points="3832.5,-375.5 3832.5,-375.5 3902.5,-375.5 3902.5,-375.5 3832.5,-375.5"/>
</g>
<!-- _LDOUBLE -->
<g id="node41" class="node">
<title>_LDOUBLE</title>
<polygon fill="lightgrey" stroke="black" points="4016.5,-389.5 3920.5,-389.5 3920.5,-353.5 4016.5,-353.5 4016.5,-389.5"/>
<text text-anchor="start" x="3948.5" y="-377.1" font-family="Helvetica,Arial,sans-serif" font-size="8.00">_LDOUBLE</text>
<text text-anchor="start" x="3924.5" y="-362.1" font-family="Helvetica,Arial,sans-serif" font-size="8.00">+ ld: unsigned char [10] </text>
<polygon fill="black" stroke="black" points="3920.5,-371.5 3920.5,-371.5 4016.5,-371.5 4016.5,-371.5 3920.5,-371.5"/>
</g>
<!-- _CRT_DOUBLE -->
<g id="node42" class="node">
<title>_CRT_DOUBLE</title>
<polygon fill="lightgrey" stroke="black" points="4098,-389.5 4035,-389.5 4035,-353.5 4098,-353.5 4098,-389.5"/>
<text text-anchor="start" x="4039.5" y="-377.1" font-family="Helvetica,Arial,sans-serif" font-size="8.00">_CRT_DOUBLE</text>
<text text-anchor="start" x="4045.5" y="-362.1" font-family="Helvetica,Arial,sans-serif" font-size="8.00">+ x: double </text>
<polygon fill="black" stroke="black" points="4035.5,-371.5 4035.5,-371.5 4098.5,-371.5 4098.5,-371.5 4035.5,-371.5"/>
</g>
<!-- _CRT_FLOAT -->
<g id="node43" class="node">
<title>_CRT_FLOAT</title>
<polygon fill="lightgrey" stroke="black" points="4174.5,-389.5 4116.5,-389.5 4116.5,-353.5 4174.5,-353.5 4174.5,-389.5"/>
<text text-anchor="start" x="4120.5" y="-377.1" font-family="Helvetica,Arial,sans-serif" font-size="8.00">_CRT_FLOAT</text>
<text text-anchor="start" x="4129" y="-362.1" font-family="Helvetica,Arial,sans-serif" font-size="8.00">+ f: float </text>
<polygon fill="black" stroke="black" points="4116.5,-371.5 4116.5,-371.5 4174.5,-371.5 4174.5,-371.5 4116.5,-371.5"/>
</g>
<!-- _LONGDOUBLE -->
<g id="node44" class="node">
<title>_LONGDOUBLE</title>
<polygon fill="lightgrey" stroke="black" points="4260.5,-389.5 4192.5,-389.5 4192.5,-353.5 4260.5,-353.5 4260.5,-389.5"/>
<text text-anchor="start" x="4197.5" y="-377.1" font-family="Helvetica,Arial,sans-serif" font-size="8.00">_LONGDOUBLE</text>
<text text-anchor="start" x="4196.5" y="-362.1" font-family="Helvetica,Arial,sans-serif" font-size="8.00">+ x: long double </text>
<polygon fill="black" stroke="black" points="4192.5,-371.5 4192.5,-371.5 4260.5,-371.5 4260.5,-371.5 4192.5,-371.5"/>
</g>
<!-- _LDBL12 -->
<g id="node45" class="node">
<title>_LDBL12</title>
<polygon fill="lightgrey" stroke="black" points="4384,-389.5 4279,-389.5 4279,-353.5 4384,-353.5 4384,-389.5"/>
<text text-anchor="start" x="4315" y="-377.1" font-family="Helvetica,Arial,sans-serif" font-size="8.00">_LDBL12</text>
<text text-anchor="start" x="4283.5" y="-362.1" font-family="Helvetica,Arial,sans-serif" font-size="8.00">+ ld12: unsigned char [12] </text>
<polygon fill="black" stroke="black" points="4279.5,-371.5 4279.5,-371.5 4384.5,-371.5 4384.5,-371.5 4279.5,-371.5"/>
</g>
<!-- _CrtMemBlockHeader -->
<g id="node46" class="node">
<title>_CrtMemBlockHeader</title>
<polygon fill="lightgrey" stroke="black" points="4488.5,-389.5 4402.5,-389.5 4402.5,-353.5 4488.5,-353.5 4488.5,-389.5"/>
<text text-anchor="start" x="4406.5" y="-369.1" font-family="Helvetica,Arial,sans-serif" font-size="8.00">_CrtMemBlockHeader</text>
</g>
<!-- _CrtMemState -->
<g id="node47" class="node">
<title>_CrtMemState</title>
<polygon fill="lightgrey" stroke="black" points="4684.5,-405.5 4506.5,-405.5 4506.5,-337.5 4684.5,-337.5 4684.5,-405.5"/>
<text text-anchor="start" x="4570" y="-395.1" font-family="Helvetica,Arial,sans-serif" font-size="8.00">_CrtMemState</text>
<text text-anchor="start" x="4510.5" y="-380.1" font-family="Helvetica,Arial,sans-serif" font-size="8.00">+ pBlockHeader: struct _CrtMemBlockHeader * </text>
<text text-anchor="start" x="4558.5" y="-371.1" font-family="Helvetica,Arial,sans-serif" font-size="8.00">+ lCounts: size_t [5] </text>
<text text-anchor="start" x="4561" y="-362.1" font-family="Helvetica,Arial,sans-serif" font-size="8.00">+ lSizes: size_t [5] </text>
<text text-anchor="start" x="4547.5" y="-353.1" font-family="Helvetica,Arial,sans-serif" font-size="8.00">+ lHighWaterCount: size_t </text>
<text text-anchor="start" x="4557.5" y="-344.1" font-family="Helvetica,Arial,sans-serif" font-size="8.00">+ lTotalCount: size_t </text>
<polygon fill="black" stroke="black" points="4506.5,-389.5 4506.5,-389.5 4684.5,-389.5 4684.5,-389.5 4506.5,-389.5"/>
</g>
<!-- _CrtMemBlockHeader&#45;&gt;_CrtMemState -->
<g id="edge5" class="edge">
<title>_CrtMemBlockHeader&#45;&gt;_CrtMemState</title>
<path fill="none" stroke="black" d="M4500.63,-371.5C4502.46,-371.5 4504.28,-371.5 4506.11,-371.5"/>
<polygon fill="none" stroke="black" points="4500.57,-371.5 4494.57,-375.5 4488.57,-371.5 4494.57,-367.5 4500.57,-371.5"/>
</g>
<!-- _heapinfo -->
<g id="node48" class="node">
<title>_heapinfo</title>
<polygon fill="lightgrey" stroke="black" points="4766,-396.5 4703,-396.5 4703,-346.5 4766,-346.5 4766,-396.5"/>
<text text-anchor="start" x="4716.5" y="-386.1" font-family="Helvetica,Arial,sans-serif" font-size="8.00">_heapinfo</text>
<text text-anchor="start" x="4707.5" y="-371.1" font-family="Helvetica,Arial,sans-serif" font-size="8.00">+ _pentry: int * </text>
<text text-anchor="start" x="4707.5" y="-362.1" font-family="Helvetica,Arial,sans-serif" font-size="8.00">+ _size: size_t </text>
<text text-anchor="start" x="4708" y="-353.1" font-family="Helvetica,Arial,sans-serif" font-size="8.00">+ _useflag: int </text>
<polygon fill="black" stroke="black" points="4703.5,-380.5 4703.5,-380.5 4766.5,-380.5 4766.5,-380.5 4703.5,-380.5"/>
</g>
<!-- _timespec32 -->
<g id="node49" class="node">
<title>_timespec32</title>
<polygon fill="lightgrey" stroke="black" points="4870.5,-392 4784.5,-392 4784.5,-351 4870.5,-351 4870.5,-392"/>
<text text-anchor="start" x="4804.5" y="-381.1" font-family="Helvetica,Arial,sans-serif" font-size="8.00">_timespec32</text>
<text text-anchor="start" x="4788.5" y="-366.1" font-family="Helvetica,Arial,sans-serif" font-size="8.00">+ tv_sec: __time32_t </text>
<text text-anchor="start" x="4798.5" y="-357.1" font-family="Helvetica,Arial,sans-serif" font-size="8.00">+ tv_nsec: long </text>
<polygon fill="black" stroke="black" points="4784.5,-375.5 4784.5,-375.5 4870.5,-375.5 4870.5,-375.5 4784.5,-375.5"/>
</g>
<!-- _timespec64 -->
<g id="node50" class="node">
<title>_timespec64</title>
<polygon fill="lightgrey" stroke="black" points="4974.5,-392 4888.5,-392 4888.5,-351 4974.5,-351 4974.5,-392"/>
<text text-anchor="start" x="4908.5" y="-381.1" font-family="Helvetica,Arial,sans-serif" font-size="8.00">_timespec64</text>
<text text-anchor="start" x="4892.5" y="-366.1" font-family="Helvetica,Arial,sans-serif" font-size="8.00">+ tv_sec: __time64_t </text>
<text text-anchor="start" x="4902.5" y="-357.1" font-family="Helvetica,Arial,sans-serif" font-size="8.00">+ tv_nsec: long </text>
<polygon fill="black" stroke="black" points="4888.5,-375.5 4888.5,-375.5 4974.5,-375.5 4974.5,-375.5 4888.5,-375.5"/>
</g>
<!-- timespec -->
<g id="node51" class="node">
<title>timespec</title>
<polygon fill="lightgrey" stroke="black" points="5060.5,-392 4992.5,-392 4992.5,-351 5060.5,-351 5060.5,-392"/>
<text text-anchor="start" x="5010" y="-381.1" font-family="Helvetica,Arial,sans-serif" font-size="8.00">timespec</text>
<text text-anchor="start" x="4996.5" y="-366.1" font-family="Helvetica,Arial,sans-serif" font-size="8.00">+ tv_sec: time_t </text>
<text text-anchor="start" x="4997.5" y="-357.1" font-family="Helvetica,Arial,sans-serif" font-size="8.00">+ tv_nsec: long </text>
<polygon fill="black" stroke="black" points="4992.5,-375.5 4992.5,-375.5 5060.5,-375.5 5060.5,-375.5 4992.5,-375.5"/>
</g>
<!-- lconv -->
<g id="node52" class="node">
<title>lconv</title>
<polygon fill="lightgrey" stroke="black" points="5228.5,-500 5078.5,-500 5078.5,-243 5228.5,-243 5228.5,-500"/>
<text text-anchor="start" x="5143.5" y="-489.1" font-family="Helvetica,Arial,sans-serif" font-size="8.00">lconv</text>
<text text-anchor="start" x="5111" y="-474.1" font-family="Helvetica,Arial,sans-serif" font-size="8.00">+ decimal_point: char * </text>
<text text-anchor="start" x="5107.5" y="-465.1" font-family="Helvetica,Arial,sans-serif" font-size="8.00">+ thousands_sep: char * </text>
<text text-anchor="start" x="5120" y="-456.1" font-family="Helvetica,Arial,sans-serif" font-size="8.00">+ grouping: char * </text>
<text text-anchor="start" x="5106.5" y="-447.1" font-family="Helvetica,Arial,sans-serif" font-size="8.00">+ int_curr_symbol: char * </text>
<text text-anchor="start" x="5104" y="-438.1" font-family="Helvetica,Arial,sans-serif" font-size="8.00">+ currency_symbol: char * </text>
<text text-anchor="start" x="5101.5" y="-429.1" font-family="Helvetica,Arial,sans-serif" font-size="8.00">+ mon_decimal_point: char * </text>
<text text-anchor="start" x="5097.5" y="-420.1" font-family="Helvetica,Arial,sans-serif" font-size="8.00">+ mon_thousands_sep: char * </text>
<text text-anchor="start" x="5110" y="-411.1" font-family="Helvetica,Arial,sans-serif" font-size="8.00">+ mon_grouping: char * </text>
<text text-anchor="start" x="5112" y="-402.1" font-family="Helvetica,Arial,sans-serif" font-size="8.00">+ positive_sign: char * </text>
<text text-anchor="start" x="5110.5" y="-393.1" font-family="Helvetica,Arial,sans-serif" font-size="8.00">+ negative_sign: char * </text>
<text text-anchor="start" x="5112.5" y="-384.1" font-family="Helvetica,Arial,sans-serif" font-size="8.00">+ int_frac_digits: char </text>
<text text-anchor="start" x="5119" y="-375.1" font-family="Helvetica,Arial,sans-serif" font-size="8.00">+ frac_digits: char </text>
<text text-anchor="start" x="5109.5" y="-366.1" font-family="Helvetica,Arial,sans-serif" font-size="8.00">+ p_cs_precedes: char </text>
<text text-anchor="start" x="5106.5" y="-357.1" font-family="Helvetica,Arial,sans-serif" font-size="8.00">+ p_sep_by_space: char </text>
<text text-anchor="start" x="5109.5" y="-348.1" font-family="Helvetica,Arial,sans-serif" font-size="8.00">+ n_cs_precedes: char </text>
<text text-anchor="start" x="5106.5" y="-339.1" font-family="Helvetica,Arial,sans-serif" font-size="8.00">+ n_sep_by_space: char </text>
<text text-anchor="start" x="5115" y="-330.1" font-family="Helvetica,Arial,sans-serif" font-size="8.00">+ p_sign_posn: char </text>
<text text-anchor="start" x="5115" y="-321.1" font-family="Helvetica,Arial,sans-serif" font-size="8.00">+ n_sign_posn: char </text>
<text text-anchor="start" x="5096" y="-312.1" font-family="Helvetica,Arial,sans-serif" font-size="8.00">+ _W_decimal_point: wchar_t * </text>
<text text-anchor="start" x="5092" y="-303.1" font-family="Helvetica,Arial,sans-serif" font-size="8.00">+ _W_thousands_sep: wchar_t * </text>
<text text-anchor="start" x="5091.5" y="-294.1" font-family="Helvetica,Arial,sans-serif" font-size="8.00">+ _W_int_curr_symbol: wchar_t * </text>
<text text-anchor="start" x="5088.5" y="-285.1" font-family="Helvetica,Arial,sans-serif" font-size="8.00">+ _W_currency_symbol: wchar_t * </text>
<text text-anchor="start" x="5086" y="-276.1" font-family="Helvetica,Arial,sans-serif" font-size="8.00">+ _W_mon_decimal_point: wchar_t * </text>
<text text-anchor="start" x="5082.5" y="-267.1" font-family="Helvetica,Arial,sans-serif" font-size="8.00">+ _W_mon_thousands_sep: wchar_t * </text>
<text text-anchor="start" x="5096.5" y="-258.1" font-family="Helvetica,Arial,sans-serif" font-size="8.00">+ _W_positive_sign: wchar_t * </text>
<text text-anchor="start" x="5095" y="-249.1" font-family="Helvetica,Arial,sans-serif" font-size="8.00">+ _W_negative_sign: wchar_t * </text>
<polygon fill="black" stroke="black" points="5078.5,-483.5 5078.5,-483.5 5228.5,-483.5 5228.5,-483.5 5078.5,-483.5"/>
</g>
</g>
</svg>
