<?xml version="1.0" encoding="UTF-8" standalone="no"?>
<!DOCTYPE svg PUBLIC "-//W3C//DTD SVG 1.1//EN"
 "http://www.w3.org/Graphics/SVG/1.1/DTD/svg11.dtd">
<!-- Generated by graphviz version 3.0.0 (20220226.1711)
 -->
<!-- Title: UML Pages: 1 -->
<svg width="590pt" height="424pt"
 viewBox="0.00 0.00 589.50 424.03" xmlns="http://www.w3.org/2000/svg" xmlns:xlink="http://www.w3.org/1999/xlink">
<g id="graph0" class="graph" transform="scale(1 1) rotate(0) translate(4 420.03)">
<title>UML</title>
<polygon fill="white" stroke="transparent" points="-4,4 -4,-420.03 585.5,-420.03 585.5,4 -4,4"/>
<g id="clust1" class="cluster">
<title>cluster_0</title>
<polygon fill="none" stroke="black" points="173.5,-8 173.5,-387 573.5,-387 573.5,-8 173.5,-8"/>
<text text-anchor="middle" x="373.5" y="-371.8" font-family="Times New Roman,serif" font-size="14.00">test</text>
</g>
<g id="clust3" class="cluster">
<title>cluster_2</title>
<polygon fill="none" stroke="black" points="377.5,-16 377.5,-102 565.5,-102 565.5,-16 377.5,-16"/>
<text text-anchor="middle" x="471.5" y="-86.8" font-family="Times New Roman,serif" font-size="14.00">ns2</text>
</g>
<g id="clust2" class="cluster">
<title>cluster_1</title>
<polygon fill="none" stroke="black" points="181.5,-16 181.5,-102 369.5,-102 369.5,-16 181.5,-16"/>
<text text-anchor="middle" x="275.5" y="-86.8" font-family="Times New Roman,serif" font-size="14.00">ns1</text>
</g>
<!-- inc_test -->
<g id="node1" class="node">
<title>inc_test</title>
<polygon fill="lightgrey" stroke="black" points="165,-351.5 0,-351.5 0,-280.5 165,-280.5 165,-351.5"/>
<text text-anchor="start" x="68.5" y="-340.6" font-family="Helvetica,Arial,sans-serif" font-size="8.00">inc_test</text>
<g id="a_node1_0"><a xlink:href="file:///R:\src\python\cppuml-clang\test\inc\test.h" xlink:title="&lt;TABLE&gt;">
<text text-anchor="start" x="4.5" y="-325.6" font-family="Helvetica,Arial,sans-serif" font-size="8.00">R:\src\python\cppuml&#45;clang\test\inc\test.h:7</text>
</a>
</g>
<text text-anchor="start" x="69.5" y="-310.6" font-family="Helvetica,Arial,sans-serif" font-size="8.00">+ a: int </text>
<text text-anchor="start" x="49" y="-295.6" font-family="Helvetica,Arial,sans-serif" font-size="8.00">+ &#160;&#160;inc_test(): void </text>
<text text-anchor="start" x="46.5" y="-286.6" font-family="Helvetica,Arial,sans-serif" font-size="8.00">+ &#160;&#160;~inc_test(): void </text>
<polygon fill="black" stroke="black" points="0.5,-335 0.5,-335 165.5,-335 165.5,-335 0.5,-335"/>
<polygon fill="black" stroke="black" points="0.5,-320 0.5,-320 165.5,-320 165.5,-320 0.5,-320"/>
<polygon fill="black" stroke="black" points="0.5,-305 0.5,-305 165.5,-305 165.5,-305 0.5,-305"/>
</g>
<!-- test__A -->
<g id="node2" class="node">
<title>test__A</title>
<polygon fill="lightgrey" stroke="black" points="559,-351.5 388,-351.5 388,-280.5 559,-280.5 559,-351.5"/>
<text text-anchor="start" x="470.5" y="-340.6" font-family="Helvetica,Arial,sans-serif" font-size="8.00">A</text>
<g id="a_node2_1"><a xlink:href="file:///R:\src\python\cppuml-clang\test\test.cpp" xlink:title="&lt;TABLE&gt;">
<text text-anchor="start" x="392.5" y="-325.6" font-family="Helvetica,Arial,sans-serif" font-size="8.00">R:\src\python\cppuml&#45;clang\test\test.cpp:153</text>
</a>
</g>
<text text-anchor="start" x="451" y="-310.6" font-family="Helvetica,Arial,sans-serif" font-size="8.00">+ &#160;&#160;A(): void </text>
<text text-anchor="start" x="439" y="-295.6" font-family="Helvetica,Arial,sans-serif" font-size="8.00">&#45; _pinc1: inc_test * </text>
<text text-anchor="start" x="439" y="-286.6" font-family="Helvetica,Arial,sans-serif" font-size="8.00">&#45; _pinc2: inc_test * </text>
<polygon fill="black" stroke="black" points="388.5,-335 388.5,-335 559.5,-335 559.5,-335 388.5,-335"/>
<polygon fill="black" stroke="black" points="388.5,-320 388.5,-320 559.5,-320 559.5,-320 388.5,-320"/>
<polygon fill="black" stroke="black" points="388.5,-305 388.5,-305 559.5,-305 559.5,-305 388.5,-305"/>
</g>
<!-- inc_test&#45;&gt;test__A -->
<g id="edge1" class="edge">
<title>inc_test&#45;&gt;test__A</title>
<path fill="none" stroke="black" d="M117.54,-360.59C133.96,-377.93 155.08,-395.81 178.5,-405 217.19,-420.17 326.39,-419.04 365.5,-405 395.23,-394.33 422.61,-371.55 442.37,-351.7"/>
<polygon fill="black" stroke="black" points="117.45,-360.5 110.46,-358.75 109.39,-351.62 116.38,-353.37 117.45,-360.5"/>
</g>
<!-- test__B -->
<g id="node3" class="node">
<title>test__B</title>
<polygon fill="lightgrey" stroke="black" points="365,-356 194,-356 194,-276 365,-276 365,-356"/>
<text text-anchor="start" x="277" y="-345.6" font-family="Helvetica,Arial,sans-serif" font-size="8.00">B</text>
<g id="a_node3_2"><a xlink:href="file:///R:\src\python\cppuml-clang\test\test.cpp" xlink:title="&lt;TABLE&gt;">
<text text-anchor="start" x="198.5" y="-330.6" font-family="Helvetica,Arial,sans-serif" font-size="8.00">R:\src\python\cppuml&#45;clang\test\test.cpp:164</text>
</a>
</g>
<text text-anchor="start" x="257.5" y="-315.6" font-family="Helvetica,Arial,sans-serif" font-size="8.00">+ &#160;&#160;B(): void </text>
<text text-anchor="start" x="236" y="-306.6" font-family="Helvetica,Arial,sans-serif" font-size="8.00">+ &#160;&#160;B(const int &amp;&amp;): void </text>
<text text-anchor="start" x="209.5" y="-297.6" font-family="Helvetica,Arial,sans-serif" font-size="8.00">+ static &#160;factory*(const char *): test::B </text>
<text text-anchor="start" x="257" y="-282.6" font-family="Helvetica,Arial,sans-serif" font-size="8.00">&#45; _a: test::A </text>
<polygon fill="black" stroke="black" points="194.5,-340 194.5,-340 365.5,-340 365.5,-340 194.5,-340"/>
<polygon fill="black" stroke="black" points="194.5,-325 194.5,-325 365.5,-325 365.5,-325 194.5,-325"/>
<polygon fill="black" stroke="black" points="194.5,-292 194.5,-292 365.5,-292 365.5,-292 194.5,-292"/>
</g>
<!-- test__A&#45;&gt;test__B -->
<g id="edge2" class="edge">
<title>test__A&#45;&gt;test__B</title>
<path fill="none" stroke="black" d="M375.85,-316C372.28,-316 368.7,-316 365.13,-316"/>
<polygon fill="black" stroke="black" points="375.99,-316 381.99,-312 387.99,-316 381.99,-320 375.99,-316"/>
</g>
<!-- test__C -->
<g id="node4" class="node">
<title>test__C</title>
<polygon fill="lightgrey" stroke="black" points="357,-240 186,-240 186,-193 357,-193 357,-240"/>
<text text-anchor="start" x="269" y="-229.1" font-family="Helvetica,Arial,sans-serif" font-size="8.00">C</text>
<g id="a_node4_3"><a xlink:href="file:///R:\src\python\cppuml-clang\test\test.cpp" xlink:title="&lt;TABLE&gt;">
<text text-anchor="start" x="190.5" y="-214.1" font-family="Helvetica,Arial,sans-serif" font-size="8.00">R:\src\python\cppuml&#45;clang\test\test.cpp:175</text>
</a>
</g>
<text text-anchor="start" x="249.5" y="-199.1" font-family="Helvetica,Arial,sans-serif" font-size="8.00">+ &#160;&#160;C(): void </text>
<polygon fill="black" stroke="black" points="186.5,-223.5 186.5,-223.5 357.5,-223.5 357.5,-223.5 186.5,-223.5"/>
<polygon fill="black" stroke="black" points="186.5,-208.5 186.5,-208.5 357.5,-208.5 357.5,-208.5 186.5,-208.5"/>
</g>
<!-- test__B&#45;&gt;test__C -->
<g id="edge3" class="edge">
<title>test__B&#45;&gt;test__C</title>
<path fill="none" stroke="black" d="M275.46,-265.79C274.72,-256.77 273.98,-247.78 273.35,-240.05"/>
<polygon fill="none" stroke="black" points="271.99,-266.22 276.29,-275.9 278.96,-265.65 271.99,-266.22"/>
</g>
<!-- test__D -->
<g id="node5" class="node">
<title>test__D</title>
<polygon fill="lightgrey" stroke="black" points="546,-240 375,-240 375,-193 546,-193 546,-240"/>
<text text-anchor="start" x="458" y="-229.1" font-family="Helvetica,Arial,sans-serif" font-size="8.00">D</text>
<g id="a_node5_4"><a xlink:href="file:///R:\src\python\cppuml-clang\test\test.cpp" xlink:title="&lt;TABLE&gt;">
<text text-anchor="start" x="379.5" y="-214.1" font-family="Helvetica,Arial,sans-serif" font-size="8.00">R:\src\python\cppuml&#45;clang\test\test.cpp:181</text>
</a>
</g>
<text text-anchor="start" x="438.5" y="-199.1" font-family="Helvetica,Arial,sans-serif" font-size="8.00">+ &#160;&#160;D(): void </text>
<polygon fill="black" stroke="black" points="375.5,-223.5 375.5,-223.5 546.5,-223.5 546.5,-223.5 375.5,-223.5"/>
<polygon fill="black" stroke="black" points="375.5,-208.5 375.5,-208.5 546.5,-208.5 546.5,-208.5 375.5,-208.5"/>
</g>
<!-- test__B&#45;&gt;test__D -->
<g id="edge4" class="edge">
<title>test__B&#45;&gt;test__D</title>
<path fill="none" stroke="black" d="M360.89,-271.16C380.86,-260.4 401.42,-249.32 418.64,-240.05"/>
<polygon fill="none" stroke="black" points="359.22,-268.08 352.08,-275.9 362.54,-274.24 359.22,-268.08"/>
</g>
<!-- test__E -->
<g id="node6" class="node">
<title>test__E</title>
<polygon fill="lightgrey" stroke="black" points="453,-157 282,-157 282,-110 453,-110 453,-157"/>
<text text-anchor="start" x="365.5" y="-146.1" font-family="Helvetica,Arial,sans-serif" font-size="8.00">E</text>
<g id="a_node6_5"><a xlink:href="file:///R:\src\python\cppuml-clang\test\test.cpp" xlink:title="&lt;TABLE&gt;">
<text text-anchor="start" x="286.5" y="-131.1" font-family="Helvetica,Arial,sans-serif" font-size="8.00">R:\src\python\cppuml&#45;clang\test\test.cpp:187</text>
</a>
</g>
<text text-anchor="start" x="346" y="-116.1" font-family="Helvetica,Arial,sans-serif" font-size="8.00">+ &#160;&#160;E(): void </text>
<polygon fill="black" stroke="black" points="282.5,-140.5 282.5,-140.5 453.5,-140.5 453.5,-140.5 282.5,-140.5"/>
<polygon fill="black" stroke="black" points="282.5,-125.5 282.5,-125.5 453.5,-125.5 453.5,-125.5 282.5,-125.5"/>
</g>
<!-- test__C&#45;&gt;test__E -->
<g id="edge5" class="edge">
<title>test__C&#45;&gt;test__E</title>
<path fill="none" stroke="black" d="M305.92,-186.46C317.31,-176.85 329.82,-166.29 340.57,-157.22"/>
<polygon fill="none" stroke="black" points="303.63,-183.81 298.24,-192.94 308.14,-189.16 303.63,-183.81"/>
</g>
<!-- test__D&#45;&gt;test__E -->
<g id="edge6" class="edge">
<title>test__D&#45;&gt;test__E</title>
<path fill="none" stroke="black" d="M426.84,-186.18C415.89,-176.64 403.9,-166.21 393.59,-157.22"/>
<polygon fill="none" stroke="black" points="424.75,-189.01 434.59,-192.94 429.35,-183.73 424.75,-189.01"/>
</g>
<!-- test__ns1__N -->
<g id="node7" class="node">
<title>test__ns1__N</title>
<polygon fill="lightgrey" stroke="black" points="361,-71 190,-71 190,-24 361,-24 361,-71"/>
<text text-anchor="start" x="273" y="-60.1" font-family="Helvetica,Arial,sans-serif" font-size="8.00">N</text>
<g id="a_node7_6"><a xlink:href="file:///R:\src\python\cppuml-clang\test\test.cpp" xlink:title="&lt;TABLE&gt;">
<text text-anchor="start" x="194.5" y="-45.1" font-family="Helvetica,Arial,sans-serif" font-size="8.00">R:\src\python\cppuml&#45;clang\test\test.cpp:195</text>
</a>
</g>
<text text-anchor="start" x="253.5" y="-30.1" font-family="Helvetica,Arial,sans-serif" font-size="8.00">+ &#160;&#160;N(): void </text>
<polygon fill="black" stroke="black" points="190.5,-54.5 190.5,-54.5 361.5,-54.5 361.5,-54.5 190.5,-54.5"/>
<polygon fill="black" stroke="black" points="190.5,-39.5 190.5,-39.5 361.5,-39.5 361.5,-39.5 190.5,-39.5"/>
</g>
<!-- test__E&#45;&gt;test__ns1__N -->
<g id="edge7" class="edge">
<title>test__E&#45;&gt;test__ns1__N</title>
<path fill="none" stroke="black" d="M335.14,-102.96C323.67,-92.48 310.96,-80.87 300.22,-71.07"/>
<polygon fill="none" stroke="black" points="333.1,-105.83 342.85,-109.99 337.82,-100.66 333.1,-105.83"/>
</g>
<!-- test__ns2__N2 -->
<g id="node8" class="node">
<title>test__ns2__N2</title>
<polygon fill="lightgrey" stroke="black" points="557,-71 386,-71 386,-24 557,-24 557,-71"/>
<text text-anchor="start" x="467" y="-60.1" font-family="Helvetica,Arial,sans-serif" font-size="8.00">N2</text>
<g id="a_node8_7"><a xlink:href="file:///R:\src\python\cppuml-clang\test\test.cpp" xlink:title="&lt;TABLE&gt;">
<text text-anchor="start" x="390.5" y="-45.1" font-family="Helvetica,Arial,sans-serif" font-size="8.00">R:\src\python\cppuml&#45;clang\test\test.cpp:204</text>
</a>
</g>
<text text-anchor="start" x="447.5" y="-30.1" font-family="Helvetica,Arial,sans-serif" font-size="8.00">+ &#160;&#160;N2(): void </text>
<polygon fill="black" stroke="black" points="386.5,-54.5 386.5,-54.5 557.5,-54.5 557.5,-54.5 386.5,-54.5"/>
<polygon fill="black" stroke="black" points="386.5,-39.5 386.5,-39.5 557.5,-39.5 557.5,-39.5 386.5,-39.5"/>
</g>
<!-- test__E&#45;&gt;test__ns2__N2 -->
<g id="edge8" class="edge">
<title>test__E&#45;&gt;test__ns2__N2</title>
<path fill="none" stroke="black" d="M403.33,-103.56C416.49,-92.93 431.19,-81.06 443.55,-71.07"/>
<polygon fill="none" stroke="black" points="400.95,-100.98 395.37,-109.99 405.35,-106.43 400.95,-100.98"/>
</g>
</g>
</svg>
